<?xml version="1.0"?>
<svg version="1.1" xmlns="http://www.w3.org/2000/svg" width="51px" height="40px" style="border: dashed 2px #aaa"><path fill="#cecece" d="M12.7,30.48c0,0.2-0.1,0.32-0.36,0.32l-1.78,0c-0.42,0-0.56-0.16-0.68-0.48l-1.04-2.94l-5.06,0l-1.04,3c-0.08,0.26-0.22,0.42-0.54,0.42l-1.78,0c-0.2,0-0.28-0.1-0.28-0.26c0-0.06,0-0.14,0.04-0.22l4.88-12.96c0.1-0.24,0.24-0.4,0.54-0.4l1.6,0c0.3,0,0.48,0.14,0.56,0.36l4.9,12.9c0.04,0.1,0.04,0.18,0.04,0.26z M8.16,25.44l-1.42-4.22c-0.18-0.56-0.3-0.98-0.4-1.3l-0.04,0c-0.1,0.34-0.22,0.76-0.42,1.32l-1.42,4.2l3.7,0z M20.89,18.22c0,0.32-0.14,0.42-0.42,0.42l-1.14,0l0,10.48l1.08,0c0.28,0,0.42,0.18,0.42,0.42l0,0.86c0,0.24-0.1,0.4-0.36,0.4l-4.76,0c-0.26,0-0.4-0.16-0.4-0.38l0-0.9c0-0.28,0.12-0.4,0.4-0.4l1.06,0l0-10.48l-1.16,0c-0.28,0-0.4-0.14-0.4-0.4l0-0.88c0-0.22,0.12-0.4,0.36-0.4l4.9,0c0.28,0,0.42,0.18,0.42,0.38l0,0.88z"/><path fill="#cecece" d=""/></svg>
