<?xml version="1.0"?>
<svg version="1.1" xmlns="http://www.w3.org/2000/svg" width="130px" height="36px" style=""><path fill="#c8c8c8" d="M15.042,22.37c0,5.198-2.967,8.326-7.084,8.326c-4.393,0-6.923-3.197-6.923-8.188c0-4.945,2.76-8.303,7.084-8.303c4.554,0,6.923,3.45,6.923,8.165z M11.868,22.439c0-3.864-1.357-5.727-3.818-5.727c-2.3,0-3.841,2.139-3.841,5.727c0,3.818,1.403,5.75,3.841,5.75c2.277,0,3.818-2.001,3.818-5.75z M25.7485,29.73c0,0.23-0.115,0.345-0.345,0.437c-0.713,0.299-1.656,0.529-2.576,0.529c-1.173,0-2.185-0.299-2.76-0.966c-0.713-0.805-0.736-1.748-0.736-3.427l0-5.129l-1.081,0c-0.437,0-0.506-0.092-0.506-0.575l0-0.874c0-0.276,0.138-0.46,0.414-0.46l1.173,0l0-2.507c0-0.391,0.207-0.506,0.575-0.552l1.656-0.207l0.115,0c0.299,0,0.437,0.161,0.437,0.506l0,2.76l2.599,0c0.276,0,0.437,0.092,0.437,0.391l0,1.081c0,0.276-0.184,0.437-0.46,0.437l-2.576,0l0,5.267c0,0.69,0.046,1.196,0.299,1.564c0.207,0.299,0.529,0.483,1.081,0.483c0.575,0,1.058-0.138,1.472-0.276c0.092-0.023,0.161-0.046,0.23-0.046c0.161,0,0.253,0.092,0.299,0.276l0.23,1.15c0.023,0.069,0.023,0.092,0.023,0.138z M35.857,29.73c0,0.23-0.115,0.345-0.345,0.437c-0.713,0.299-1.656,0.529-2.576,0.529c-1.173,0-2.185-0.299-2.76-0.966c-0.713-0.805-0.736-1.748-0.736-3.427l0-5.129l-1.081,0c-0.437,0-0.506-0.092-0.506-0.575l0-0.874c0-0.276,0.138-0.46,0.414-0.46l1.173,0l0-2.507c0-0.391,0.207-0.506,0.575-0.552l1.656-0.207l0.115,0c0.299,0,0.437,0.161,0.437,0.506l0,2.76l2.599,0c0.276,0,0.437,0.092,0.437,0.391l0,1.081c0,0.276-0.184,0.437-0.46,0.437l-2.576,0l0,5.267c0,0.69,0.046,1.196,0.299,1.564c0.207,0.299,0.529,0.483,1.081,0.483c0.575,0,1.058-0.138,1.472-0.276c0.092-0.023,0.161-0.046,0.23-0.046c0.161,0,0.253,0.092,0.299,0.276l0.23,1.15c0.023,0.069,0.023,0.092,0.023,0.138z M49.4385,24.831c0,3.312-2.024,5.865-5.612,5.865c-3.749,0-5.474-2.53-5.474-5.888c0-3.312,2.024-5.842,5.612-5.842c3.749,0,5.474,2.484,5.474,5.865z M46.5635,24.831c0-1.886-0.598-3.68-2.622-3.68c-2.047,0-2.714,1.771-2.714,3.611c0,1.886,0.575,3.749,2.622,3.749c2.024,0,2.714-1.794,2.714-3.68z M69.69,29.845c0,0.414-0.161,0.575-0.552,0.575l-1.61,0c-0.414,0-0.598-0.161-0.598-0.575l0-6.302c0-1.242-0.322-2.185-1.725-2.185c-0.874,0-1.886,0.46-2.599,1.035c0.046,0.207,0.092,3.289,0.092,3.611l0,3.841c0,0.414-0.161,0.575-0.552,0.575l-1.518,0c-0.414,0-0.598-0.161-0.598-0.575l0-6.302c0-1.219-0.253-2.185-1.656-2.185c-0.897,0-1.817,0.506-2.553,1.15l0,7.337c0,0.414-0.184,0.575-0.575,0.575l-1.61,0c-0.414,0-0.598-0.161-0.598-0.575l0-10.051c0-0.368,0.207-0.529,0.552-0.529l1.495,0c0.345,0,0.552,0.115,0.575,0.437l0.023,0.575c0.943-0.828,2.185-1.311,3.381-1.311c1.403,0,2.392,0.621,2.921,1.495c1.035-0.989,2.53-1.495,3.933-1.495c1.679,0,2.737,0.828,3.22,1.725c0.437,0.851,0.552,1.863,0.552,3.335l0,5.819z M84.7895,29.983c0,0.276-0.184,0.437-0.46,0.437l-1.104,0c-1.196,0-1.725-0.575-1.886-1.357l-0.046,0c-0.575,0.851-2.07,1.633-3.335,1.633c-3.243,0-4.715-2.668-4.715-5.658c0-3.979,2.392-6.072,4.968-6.072c1.219,0,2.369,0.552,2.944,1.334l0.046-0.621c0.023-0.253,0.207-0.414,0.483-0.414l1.61,0c0.299,0,0.483,0.161,0.483,0.506l0,7.981c0,0.322,0.046,0.552,0.138,0.667c0.069,0.069,0.161,0.092,0.276,0.092l0.184,0c0.276,0,0.414,0.092,0.414,0.391l0,1.081z M80.9945,26.855l0-4.439c-0.46-0.667-1.403-1.173-2.277-1.173c-1.403,0-2.599,1.196-2.599,3.611c0,1.932,0.736,3.565,2.438,3.565c1.127,0,2.093-0.851,2.438-1.564z M98.164,29.822c0,0.391-0.138,0.598-0.552,0.598l-1.656,0c-0.414,0-0.552-0.207-0.552-0.598l0-6.256c0-1.265-0.345-2.162-1.748-2.162c-0.897,0-2.001,0.483-2.714,1.104l0,7.337c0,0.391-0.161,0.575-0.552,0.575l-1.679,0c-0.345,0-0.552-0.184-0.552-0.552l0-10.028c0-0.368,0.161-0.575,0.575-0.575l1.495,0c0.322,0,0.529,0.092,0.552,0.437l0.023,0.598c1.058-0.851,2.392-1.334,3.726-1.334c2.576,0,3.634,1.61,3.634,4.117l0,6.739z M115.5865,30.052c0,0.23-0.115,0.368-0.414,0.368l-2.047,0c-0.483,0-0.644-0.184-0.782-0.552l-1.196-3.381l-5.819,0l-1.196,3.45c-0.092,0.299-0.253,0.483-0.621,0.483l-2.047,0c-0.23,0-0.322-0.115-0.322-0.299c0-0.069,0-0.161,0.046-0.253l5.612-14.904c0.115-0.276,0.276-0.46,0.621-0.46l1.84,0c0.345,0,0.552,0.161,0.644,0.414l5.635,14.835c0.046,0.115,0.046,0.207,0.046,0.299z M110.3655,24.256l-1.633-4.853c-0.207-0.644-0.345-1.127-0.46-1.495l-0.046,0c-0.115,0.391-0.253,0.874-0.483,1.518l-1.633,4.83l4.255,0z M125.005,15.953c0,0.368-0.161,0.483-0.483,0.483l-1.311,0l0,12.052l1.242,0c0.322,0,0.483,0.207,0.483,0.483l0,0.989c0,0.276-0.115,0.46-0.414,0.46l-5.474,0c-0.299,0-0.46-0.184-0.46-0.437l0-1.035c0-0.322,0.138-0.46,0.46-0.46l1.219,0l0-12.052l-1.334,0c-0.322,0-0.46-0.161-0.46-0.46l0-1.012c0-0.253,0.138-0.46,0.414-0.46l5.635,0c0.322,0,0.483,0.207,0.483,0.437l0,1.012z"/><path fill="#" d=""/></svg>
